<svg xmlns="http://www.w3.org/2000/svg" viewBox="0 0 1080 1080"><rect width="1080" height="1080" rx="150" fill="#06070d"/><g transform="translate(119,358) scale(0.78)"><path d="M 550 159.431 C 529.748 164.851, 517.099 171.350, 485.191 192.729 C 441.466 222.025, 420.398 233.155, 397.500 239.054 C 395.850 239.479, 392.025 240.484, 389 241.288 C 381.216 243.356, 376 244.027, 376 242.961 C 376 240.573, 391.265 229.522, 401.230 224.696 C 407.131 221.838, 411.968 219.215, 411.980 218.867 C 412.046 216.806, 387.661 216.235, 377.434 218.057 C 351.969 222.595, 326.889 237.386, 307.983 259.013 C 304.967 262.462, 301.466 266.458, 300.202 267.892 C 295.803 272.884, 287.288 285.567, 281.413 295.878 C 271.337 313.562, 259.213 324.552, 252.567 322.025 C 242.111 318.050, 232.577 323.164, 219.987 339.500 C 217.020 343.350, 212.772 348.223, 210.546 350.329 L 206.500 354.158 219 353.627 C 238.489 352.799, 249.222 348.345, 255.441 338.507 C 257.236 335.667, 259.290 333.725, 260.908 333.337 C 270.481 331.043, 279.078 323.039, 290.639 305.658 C 300.993 290.093, 306.899 283.565, 316.126 277.486 C 323.257 272.788, 326.555 271.624, 323.655 274.829 C 322.745 275.835, 322 276.968, 322 277.349 C 322 277.729, 320.964 279.718, 319.699 281.770 C 315.413 288.716, 310.124 302.482, 307.507 313.500 C 302.329 335.303, 300.823 340.093, 296.659 348 C 290.273 360.127, 277.626 372.737, 263 381.561 C 255.729 385.947, 255.205 386.464, 254.445 390 C 252.509 399.014, 248.165 412.894, 246.081 416.728 C 238.155 431.312, 230 451.037, 230 455.626 L 230 459 262.638 459 L 295.276 459 294.598 452.382 C 293.896 445.527, 291.663 440.019, 287.145 434.001 C 283.758 429.489, 283.862 423.855, 287.454 417.278 C 290.330 412.011, 293.289 409.792, 303 405.618 C 322.682 397.159, 339.594 388.439, 343 384.994 C 343.275 384.716, 345.258 383.177, 347.407 381.573 C 364.585 368.757, 380.399 342.713, 384.600 320.319 C 385.276 316.717, 385.336 316.671, 386.256 319.041 C 388.628 325.151, 390.256 334.201, 390.427 342.223 C 390.529 347.020, 390.846 351.179, 391.132 351.465 C 393.442 353.775, 430.740 364.642, 444 366.868 C 460.031 369.559, 473.681 370.243, 486.208 368.982 C 502.476 367.344, 503.271 367.030, 498.898 363.968 C 480.339 350.976, 471.725 335.118, 470.397 311.500 C 468.922 285.261, 475.077 263.670, 490.771 240.031 C 496.444 231.485, 515.353 210.999, 511.105 218 C 495.251 244.133, 484.063 279.092, 484.063 302.500 C 484.063 315.206, 488.411 335.808, 492.582 342.869 C 495.532 347.864, 520.995 361.896, 550 374.511 C 559.800 378.773, 559.839 378.866, 554.189 384.413 C 549.491 389.026, 543 393.794, 543 392.632 C 543 392.322, 543.763 390.469, 544.695 388.514 C 546.780 384.142, 545.886 382.987, 538.500 380.507 C 528.213 377.053, 517.645 377.318, 514.103 381.120 C 512.137 383.230, 509.020 391.257, 507.160 399 C 502.237 419.497, 503.069 428.808, 510.171 432.684 C 515.516 435.600, 540.022 435.309, 549.500 432.216 C 570.802 425.264, 589.871 413.422, 603.829 398.477 C 618.374 382.902, 620.717 370.864, 611.812 357.469 C 604.368 346.271, 594.239 338.370, 561.815 318.463 C 549.339 310.803, 539.267 304.400, 539.434 304.233 C 540.169 303.498, 562.324 309.487, 570.398 312.603 C 575.292 314.492, 579.407 315.916, 579.543 315.768 C 580.591 314.629, 584.103 297.608, 584.964 289.500 C 586.048 279.292, 585.057 261.731, 582.952 253.851 C 582.416 251.844, 581.568 248.244, 581.068 245.851 C 580.568 243.458, 579.454 239.313, 578.594 236.640 C 577.147 232.145, 577.152 231.882, 578.667 233.139 C 580.438 234.609, 588 244.577, 588 245.442 C 588 245.732, 589.312 248.114, 590.917 250.735 C 600.988 267.190, 604.200 303.792, 597.176 322.066 C 596.265 324.436, 596.655 325.008, 602.303 329.566 C 620.090 343.921, 632 361.577, 632 373.589 C 632 381.317, 626.553 393.236, 618.016 404.191 L 615.919 406.882 625.615 414.137 C 637.250 422.845, 646.624 431.371, 648.452 434.911 C 649.188 436.335, 650.334 441.100, 651 445.500 C 651.666 449.900, 652.849 454.738, 653.631 456.250 L 655.051 459 686.026 459 L 717 459 717 453.896 C 717 445.942, 711.834 437.075, 701.968 428.094 C 693.335 420.236, 677.906 398.262, 655.557 362 C 649.625 352.375, 642.359 340.865, 639.410 336.423 L 634.048 328.347 634.941 322.923 C 635.432 319.940, 636.850 315.250, 638.092 312.500 L 640.351 307.500 641.085 314 C 643.183 332.586, 650.496 342.361, 671.800 355.056 C 693.539 368.010, 702.596 375.223, 707.386 383.396 L 709.818 387.545 720.349 388.796 C 726.141 389.484, 732.764 390.711, 735.066 391.523 C 743.994 394.673, 749.586 393.198, 756.653 385.830 C 765.272 376.844, 778.171 353.116, 775.915 350.398 C 774.947 349.231, 776.456 347.181, 784.135 339.234 C 811.078 311.351, 829.697 275.072, 832.624 244.750 C 833.323 237.514, 832.337 236.051, 829.928 240.750 C 817.141 265.699, 790.635 292.756, 761.072 311.038 L 750.500 317.576 750.207 324.772 C 749.945 331.180, 750.978 336.958, 753.510 343.250 C 755.867 349.107, 744.238 339.086, 739.898 331.520 C 736.227 325.119, 735.945 317.650, 739.159 311.930 L 741.319 308.088 736.039 302.794 C 722.371 289.090, 714.892 274.824, 711.027 255.082 C 709.165 245.574, 709.108 245.460, 703.620 240.335 L 698.090 235.171 700.770 233.415 C 714.401 224.483, 725.395 206.454, 728.934 187.226 C 730.443 179.024, 730.097 178.710, 722.737 181.597 C 683.742 196.894, 667 213.008, 667 235.243 C 667 241.797, 666.843 242.258, 663.750 244.802 C 651.293 255.045, 637.948 270.175, 627.666 285.711 C 621.735 294.674, 621.491 294.904, 621.260 291.764 C 619.280 264.868, 616.491 251.330, 609.259 233.500 C 602.599 217.079, 591.442 200.806, 580.198 191.113 L 574.847 186.500 577.673 185.868 C 582.331 184.828, 598.319 184.928, 606.678 186.050 C 621.997 188.108, 638.068 194.597, 653.991 205.156 L 661.482 210.123 663.235 207.958 C 665.476 205.191, 663.933 202.799, 652.937 192 C 635.287 174.665, 615.935 163.971, 592.299 158.490 C 582.087 156.121, 560.577 156.600, 550 159.431 M 762.830 261.311 C 755.207 267.707, 748.457 272.023, 740.747 275.433 C 737.586 276.831, 735 278.190, 735 278.452 C 735 283.113, 743.868 297.789, 748.030 300.016 C 750.607 301.395, 751.089 301.055, 756.252 294.206 C 764.171 283.704, 769.206 272.199, 770.533 261.583 C 771.406 254.594, 770.859 254.574, 762.830 261.311 M 698.378 305.381 C 699.551 316.837, 702.800 320.478, 712.919 321.677 C 719.730 322.484, 719.822 321.002, 713.308 315.379 C 710.200 312.696, 705.411 307.801, 702.665 304.502 L 697.673 298.503 698.378 305.381 M 387.200 362.200 C 386.540 362.860, 386 363.799, 386 364.287 C 386 364.774, 383.701 368.498, 380.892 372.562 C 374.521 381.779, 363.367 392.408, 355.248 397 C 351.844 398.925, 349.046 401.044, 349.030 401.708 C 349.013 402.373, 352.421 407.998, 356.603 414.208 C 366.609 429.068, 375 445.861, 375 451.023 C 375 451.946, 375.494 454.119, 376.098 455.851 L 377.196 459 405.229 459 L 433.263 459 432.718 454.938 C 432.419 452.703, 430.941 448.355, 429.434 445.276 C 426.810 439.912, 424.452 437.275, 411.306 425 C 405.856 419.912, 402.669 415.104, 401.838 410.719 C 401.573 409.323, 402.965 408.424, 408.297 406.549 C 422.736 401.474, 437.937 391.046, 443.765 382.219 C 445.701 379.286, 445.648 379.248, 436.358 376.872 C 419.778 372.631, 408.784 369.158, 397.556 364.617 C 387.055 360.371, 388.656 360.744, 387.200 362.200" fill="#5EF2E0" fill-rule="evenodd"/></g></svg>